<svg width="255" height="172" viewBox="0 0 255 172" fill="none" xmlns="http://www.w3.org/2000/svg">
<g clip-path="url(#clip0_30_887)">
<path d="M36.0754 0.490967V124.971H219.341V0.490967H36.0754ZM215.812 121.38H39.5985V3.90214H215.812V121.38Z" fill="white"/>
<path d="M123.952 29.5015L127.668 26.7862L131.39 29.5015L129.973 25.1086L133.751 22.3995H129.097L127.668 17.9569L126.245 22.4057L121.591 22.3995L125.369 25.1086L123.952 29.5015Z" fill="white"/>
<path d="M104.709 34.6711L108.431 31.9558L112.146 34.6711L110.73 30.2844L114.508 27.5691H109.848L108.425 23.1203L107.002 27.5753L102.348 27.5691L106.119 30.2844L104.709 34.6711Z" fill="white"/>
<path d="M94.3513 37.231L92.9222 41.6861L88.2683 41.6798L92.0461 44.3951L90.6294 48.7818L94.3513 46.0665L98.0669 48.7818L96.6502 44.3951L100.428 41.6798H95.7741L94.3513 37.231Z" fill="white"/>
<path d="M89.1817 65.2847L92.8974 67.9999L91.4869 63.6133L95.2585 60.898H90.6108L89.1817 56.4492L87.7588 60.9042L83.105 60.898L86.8827 63.6133L85.4661 67.9999L89.1817 65.2847Z" fill="white"/>
<path d="M95.7741 80.172L94.3513 75.7294L92.9222 80.1783L88.2683 80.172L92.0461 82.8873L90.6294 87.274L94.3513 84.5587L98.0669 87.274L96.6502 82.8873L100.428 80.172H95.7741Z" fill="white"/>
<path d="M109.879 94.2828L108.456 89.8401L107.033 94.2828H102.379L106.151 96.9918L104.74 101.385L108.456 98.6694L112.172 101.385L110.761 96.9918L114.533 94.2828H109.879Z" fill="white"/>
<path d="M129.097 99.3902L127.674 94.9476L126.251 99.3964L121.597 99.3902L125.369 102.106L123.958 106.492L127.674 103.777L131.39 106.492L129.973 102.106L133.751 99.3902H129.097Z" fill="white"/>
<path d="M148.315 94.2828L146.892 89.8401L145.463 94.2828H140.815L144.587 96.9918L143.177 101.385L146.892 98.6694L150.614 101.385L149.191 96.9918L152.969 94.2828H148.315Z" fill="white"/>
<path d="M162.426 80.172L160.997 75.7294L159.574 80.1783L154.92 80.172L158.698 82.8873L157.281 87.274L160.997 84.5587L164.719 87.274L163.302 82.8873L167.08 80.172H162.426Z" fill="white"/>
<path d="M172.187 60.8421H167.533L166.104 56.3995L164.681 60.8483L160.027 60.8421L163.805 63.5574L162.395 67.944L166.104 65.2288L169.826 67.944L168.409 63.5574L172.187 60.8421Z" fill="white"/>
<path d="M157.281 48.7196L160.997 46.0106L164.719 48.7196L163.302 44.3329L167.08 41.6239H162.426L160.997 37.1813L159.574 41.6301L154.92 41.6239L158.698 44.3329L157.281 48.7196Z" fill="white"/>
<path d="M146.948 23.1265L145.525 27.5753L140.871 27.5691L144.643 30.2843L143.226 34.6772L146.954 31.9558L150.664 34.6772L149.253 30.2843L153.031 27.5691H148.371L146.948 23.1265Z" fill="white"/>
<path d="M48.5706 157.66V161.96H53.678V163.755H48.5706V169.329H55.5793V171.23H46.458V155.765H55.6974V157.666H48.5706V157.66Z" fill="white"/>
<path d="M58.0398 155.759H60.1524V166.346C60.1524 167.291 60.4506 168.067 61.0471 168.676C61.6436 169.285 62.4389 169.59 63.4206 169.59C64.4645 169.59 65.2847 169.291 65.8812 168.701C66.4776 168.111 66.7759 167.309 66.7759 166.297V155.759H68.8885V166.514C68.8885 168.074 68.4038 169.298 67.4283 170.174C66.4528 171.05 65.1231 171.491 63.4455 171.491C61.7119 171.491 60.3823 171.062 59.444 170.205C58.5058 169.347 58.0398 168.117 58.0398 166.508V155.759Z" fill="white"/>
<path d="M80.6382 171.224L76.5125 164.582C76.0403 164.582 75.2947 164.544 74.2757 164.476V171.224H72.1631V155.759C72.2376 155.759 72.7844 155.734 73.8034 155.678C74.8224 155.622 75.5618 155.597 76.0278 155.597C79.7435 155.597 81.6013 157.076 81.6013 160.027C81.6013 160.996 81.3031 161.873 80.7066 162.649C80.1101 163.426 79.3955 163.911 78.5754 164.103L83.0615 171.218H80.6382V171.224ZM74.2757 157.66V162.687C74.7852 162.755 75.276 162.792 75.7545 162.792C77.022 162.792 77.9416 162.587 78.5194 162.177C79.0973 161.767 79.3831 161.04 79.3831 159.99C79.3831 159.126 79.0724 158.499 78.4511 158.12C77.8297 157.741 76.8542 157.548 75.5183 157.548C75.3133 157.554 74.897 157.591 74.2757 157.66Z" fill="white"/>
<path d="M83.9001 163.358C83.9001 161.121 84.4594 159.25 85.584 157.741C86.7086 156.231 88.2185 155.479 90.126 155.479C92.2696 155.479 93.9162 156.175 95.0595 157.56C96.2028 158.946 96.7744 160.878 96.7744 163.358C96.7744 165.899 96.2028 167.887 95.0533 169.329C93.9038 170.77 92.2634 171.485 90.126 171.485C88.175 171.485 86.6527 170.727 85.5529 169.204C84.4531 167.688 83.9001 165.737 83.9001 163.358ZM86.1183 163.358C86.1183 165.128 86.4663 166.613 87.1684 167.8C87.8705 168.993 88.8585 169.583 90.1322 169.583C91.5737 169.583 92.6735 169.037 93.4316 167.949C94.1896 166.856 94.5686 165.327 94.5686 163.358C94.5686 159.375 93.0898 157.38 90.1322 157.38C88.8212 157.38 87.827 157.915 87.1436 158.983C86.4601 160.052 86.1183 161.518 86.1183 163.358Z" fill="white"/>
<path d="M101.323 165.271V171.224H99.2102V155.759C100.807 155.69 101.77 155.653 102.106 155.653C106.598 155.653 108.841 157.157 108.841 160.158C108.841 163.637 106.859 165.371 102.889 165.371C102.64 165.377 102.124 165.34 101.323 165.271ZM101.323 157.66V163.37C102.218 163.438 102.69 163.476 102.739 163.476C105.355 163.476 106.666 162.444 106.666 160.381C106.666 158.492 105.268 157.554 102.478 157.554C102.186 157.554 101.807 157.591 101.323 157.66Z" fill="white"/>
<path d="M113.377 157.66V161.96H118.484V163.755H113.377V169.329H120.385V171.23H111.264V155.765H120.504V157.666H113.377V157.66Z" fill="white"/>
<path d="M131.626 171.224L130.557 167.962H124.803L123.666 171.224H121.299L127.581 155.547H128.14L133.968 171.224H131.626ZM127.761 159.605L125.362 166.415H129.954L127.761 159.605Z" fill="white"/>
<path d="M145.593 171.435L137.603 160.127V171.224H135.596V155.759H136.441L144.22 166.452V155.759H146.227V171.435H145.593Z" fill="white"/>
<path d="M155.908 155.759H158.02V166.346C158.02 167.291 158.319 168.067 158.915 168.676C159.512 169.285 160.307 169.59 161.289 169.59C162.332 169.59 163.153 169.291 163.749 168.701C164.346 168.111 164.644 167.309 164.644 166.297V155.759H166.756V166.514C166.756 168.074 166.272 169.298 165.296 170.174C164.321 171.05 162.991 171.491 161.313 171.491C159.58 171.491 158.25 171.062 157.312 170.205C156.374 169.347 155.908 168.117 155.908 166.508V155.759Z" fill="white"/>
<path d="M179.923 171.435L171.932 160.127V171.224H169.925V155.759H170.77L178.55 166.452V155.759H180.556V171.435H179.923Z" fill="white"/>
<path d="M184.092 171.224V155.759H186.204V171.224H184.092Z" fill="white"/>
<path d="M189 163.358C189 161.121 189.56 159.25 190.684 157.741C191.809 156.237 193.319 155.479 195.226 155.479C197.37 155.479 199.017 156.175 200.16 157.56C201.303 158.946 201.875 160.878 201.875 163.358C201.875 165.899 201.303 167.887 200.154 169.329C199.004 170.77 197.364 171.485 195.226 171.485C193.275 171.485 191.753 170.727 190.647 169.204C189.541 167.682 189 165.737 189 163.358ZM191.212 163.358C191.212 165.128 191.56 166.613 192.263 167.8C192.965 168.993 193.953 169.583 195.226 169.583C196.668 169.583 197.768 169.037 198.526 167.949C199.284 166.856 199.663 165.327 199.663 163.358C199.663 159.375 198.184 157.38 195.226 157.38C193.915 157.38 192.921 157.915 192.238 158.983C191.554 160.058 191.212 161.518 191.212 163.358Z" fill="white"/>
<path d="M214.302 171.435L206.311 160.127V171.224H204.304V155.759H205.149L212.928 166.452V155.759H214.935V171.435H214.302Z" fill="white"/>
<path d="M48.5395 142.362V148.265H46.4456V132.937C48.03 132.868 48.9869 132.831 49.31 132.831C53.7588 132.831 55.9894 134.322 55.9894 137.299C55.9894 140.747 54.0197 142.468 50.0866 142.468C49.8505 142.468 49.3348 142.431 48.5395 142.362ZM48.5395 134.819V140.48C49.428 140.548 49.894 140.585 49.9437 140.585C52.5409 140.585 53.8395 139.566 53.8395 137.516C53.8395 135.646 52.454 134.714 49.6828 134.714C49.4032 134.714 49.0179 134.745 48.5395 134.819Z" fill="white"/>
<path d="M63.3274 138.97C62.8924 138.672 62.4575 138.522 62.0164 138.522C61.3142 138.522 60.6991 138.846 60.171 139.498C59.6428 140.15 59.3819 140.927 59.3819 141.84V148.265H57.3936V137.056H59.3819V138.846C60.1088 137.516 61.1838 136.845 62.6128 136.845C62.967 136.845 63.4827 136.907 64.1538 137.031L63.3274 138.97Z" fill="white"/>
<path d="M64.8311 142.636C64.8311 140.908 65.2971 139.51 66.2291 138.442C67.1611 137.373 68.3851 136.845 69.9074 136.845C71.5105 136.845 72.7594 137.354 73.6417 138.38C74.5302 139.405 74.9714 140.821 74.9714 142.636C74.9714 144.444 74.5178 145.867 73.6106 146.911C72.7035 147.954 71.467 148.476 69.9074 148.476C68.3106 148.476 67.0617 147.948 66.1732 146.898C65.2846 145.848 64.8311 144.419 64.8311 142.636ZM66.925 142.636C66.925 145.45 67.9191 146.855 69.9074 146.855C70.8332 146.855 71.5602 146.476 72.0884 145.724C72.6165 144.972 72.8775 143.941 72.8775 142.636C72.8775 139.858 71.8895 138.473 69.9074 138.473C69.0003 138.473 68.2795 138.839 67.7327 139.585C67.1859 140.331 66.925 141.337 66.925 142.636Z" fill="white"/>
<path d="M75.8413 152.658V150.881C77.2083 150.881 78.1465 150.676 78.6498 150.26C79.1531 149.843 79.4078 149.16 79.4078 148.215V138.734H77.1772V137.062H81.3961V148.178C81.3961 149.719 80.9425 150.856 80.0354 151.577C79.1344 152.298 77.7302 152.658 75.8413 152.658ZM80.1348 132.818C80.4765 132.818 80.7686 132.937 81.0109 133.179C81.2532 133.421 81.3713 133.707 81.3713 134.043C81.3713 134.384 81.2532 134.676 81.0109 134.919C80.7686 135.161 80.4765 135.279 80.1348 135.279C79.7931 135.279 79.501 135.161 79.2649 134.919C79.0288 134.676 78.9107 134.384 78.9107 134.043C78.9107 133.701 79.0288 133.409 79.2649 133.173C79.501 132.937 79.7931 132.818 80.1348 132.818Z" fill="white"/>
<path d="M94.3635 142.853H86.2861C86.2861 144.164 86.6464 145.171 87.361 145.879C87.9948 146.494 88.8149 146.799 89.8091 146.799C90.9461 146.799 91.8968 146.469 92.6548 145.805L93.4937 147.24C93.1892 147.544 92.717 147.812 92.0832 148.035C91.2879 148.327 90.3994 148.476 89.4239 148.476C88.0134 148.476 86.8204 147.998 85.8325 147.041C84.7389 145.985 84.1921 144.574 84.1921 142.791C84.1921 140.939 84.7513 139.461 85.876 138.342C86.8826 137.342 88.0693 136.845 89.4425 136.845C91.0393 136.845 92.2945 137.292 93.2016 138.193C94.0839 139.057 94.5189 140.206 94.5189 141.635C94.5251 142.083 94.4692 142.487 94.3635 142.853ZM89.5419 138.522C88.6534 138.522 87.914 138.808 87.3113 139.38C86.7396 139.927 86.4165 140.604 86.3358 141.412H92.543C92.543 140.61 92.2945 139.939 91.7912 139.405C91.2382 138.814 90.4926 138.522 89.5419 138.522Z" fill="white"/>
<path d="M105.069 137.969L104.088 139.374C103.883 139.169 103.528 138.982 103.013 138.796C102.497 138.616 101.994 138.522 101.503 138.522C100.422 138.522 99.5642 138.901 98.9305 139.659C98.2967 140.418 97.9798 141.455 97.9798 142.772C97.9798 144.083 98.3029 145.084 98.9553 145.774C99.6015 146.463 100.502 146.805 101.658 146.805C102.553 146.805 103.454 146.457 104.361 145.767L105.144 147.439C104.075 148.128 102.752 148.476 101.18 148.476C99.6512 148.476 98.3899 147.961 97.3895 146.935C96.3892 145.91 95.8921 144.525 95.8921 142.772C95.8921 140.989 96.4078 139.554 97.4454 138.473C98.4831 137.392 99.8998 136.851 101.702 136.851C102.28 136.851 102.907 136.975 103.584 137.218C104.249 137.46 104.752 137.708 105.069 137.969Z" fill="white"/>
<path d="M107.94 138.628H106.641V137.056H107.94V134.714L109.928 133.949V137.056H113.004V138.628H109.928V144.195C109.928 145.14 110.09 145.805 110.407 146.202C110.724 146.6 111.233 146.799 111.941 146.799C112.451 146.799 112.979 146.668 113.52 146.414L113.812 148.159C112.991 148.371 112.084 148.47 111.103 148.47C110.214 148.47 109.468 148.141 108.86 147.482C108.251 146.824 107.946 145.991 107.946 144.984V138.628H107.94Z" fill="white"/>
<path d="M128.239 134.241C127.835 134.105 127.456 134.03 127.108 134.03C126.499 134.03 126.002 134.26 125.605 134.72C125.213 135.18 125.014 135.764 125.014 136.466C125.014 136.652 125.033 136.851 125.064 137.05H127.344V138.721H125.064V148.253H123.076V138.721H121.442V137.05H123.076C123.076 135.621 123.43 134.496 124.132 133.682C124.834 132.868 125.766 132.458 126.928 132.458C127.506 132.458 128.127 132.564 128.792 132.775L128.239 134.241Z" fill="white"/>
<path d="M131.986 137.056V144.202C131.986 145.935 132.738 146.799 134.235 146.799C134.888 146.799 135.49 146.612 136.037 146.233C136.584 145.854 136.938 145.419 137.112 144.922V137.05H139.1V148.259H137.112V146.712C136.888 147.153 136.441 147.557 135.77 147.923C135.099 148.29 134.44 148.47 133.794 148.47C132.57 148.47 131.625 148.116 130.973 147.414C130.321 146.712 129.998 145.705 129.998 144.413V137.056H131.986Z" fill="white"/>
<path d="M148.712 148.265V141.747C148.712 140.554 148.532 139.722 148.172 139.243C147.812 138.765 147.209 138.529 146.364 138.529C145.91 138.529 145.438 138.665 144.941 138.939C144.444 139.212 144.065 139.548 143.798 139.945V148.278H141.809V137.068H143.17L143.798 138.51C144.456 137.41 145.525 136.857 147.01 136.857C149.464 136.857 150.695 138.348 150.695 141.337V148.278H148.712V148.265Z" fill="white"/>
<path d="M160.63 148.253V147.426C159.94 148.116 158.934 148.464 157.616 148.464C156.212 148.464 155.075 147.961 154.205 146.954C153.335 145.948 152.9 144.612 152.9 142.934C152.9 141.25 153.404 139.815 154.404 138.628C155.411 137.441 156.604 136.845 157.995 136.845C159.151 136.845 160.033 137.118 160.63 137.659V132.458H162.618V148.253H160.63ZM160.63 139.653C160.127 138.901 159.437 138.522 158.567 138.522C157.498 138.522 156.635 138.92 155.976 139.715C155.317 140.511 154.988 141.524 154.988 142.748C154.988 145.45 156.218 146.799 158.673 146.799C158.983 146.799 159.362 146.699 159.804 146.501C160.245 146.302 160.518 146.09 160.63 145.867V139.653Z" fill="white"/>
<path d="M174.908 142.853H166.831C166.831 144.164 167.191 145.171 167.912 145.879C168.546 146.494 169.36 146.799 170.36 146.799C171.497 146.799 172.448 146.469 173.206 145.805L174.045 147.24C173.734 147.544 173.268 147.812 172.634 148.035C171.839 148.327 170.95 148.476 169.975 148.476C168.564 148.476 167.371 147.998 166.384 147.041C165.29 145.985 164.743 144.574 164.743 142.791C164.743 140.939 165.302 139.461 166.427 138.342C167.434 137.342 168.62 136.845 169.994 136.845C171.59 136.845 172.845 137.292 173.753 138.193C174.629 139.057 175.07 140.206 175.07 141.635C175.064 142.083 175.008 142.487 174.908 142.853ZM170.081 138.522C169.192 138.522 168.453 138.808 167.85 139.38C167.278 139.927 166.955 140.604 166.874 141.412H173.082C173.082 140.61 172.833 139.939 172.33 139.405C171.783 138.814 171.031 138.522 170.081 138.522Z" fill="white"/>
<path d="M184.26 148.253V147.426C183.57 148.116 182.563 148.464 181.246 148.464C179.842 148.464 178.705 147.961 177.835 146.954C176.965 145.948 176.53 144.612 176.53 142.934C176.53 141.25 177.033 139.815 178.034 138.628C179.04 137.441 180.233 136.845 181.625 136.845C182.781 136.845 183.663 137.118 184.26 137.659V132.458H186.248V148.253H184.26ZM184.26 139.653C183.756 138.901 183.067 138.522 182.197 138.522C181.128 138.522 180.264 138.92 179.606 139.715C178.947 140.511 178.618 141.524 178.618 142.748C178.618 145.45 179.848 146.799 182.302 146.799C182.613 146.799 182.992 146.699 183.433 146.501C183.874 146.302 184.148 146.09 184.26 145.867V139.653Z" fill="white"/>
<path d="M197.246 147.457L196.543 148.47H195.549V132.464H197.538V137.882C197.724 137.622 198.078 137.385 198.6 137.168C199.122 136.95 199.632 136.845 200.135 136.845C201.67 136.845 202.912 137.373 203.863 138.435C204.814 139.498 205.292 140.834 205.292 142.456C205.292 144.326 204.814 145.798 203.857 146.867C202.9 147.936 201.607 148.47 199.973 148.47C199.445 148.47 198.923 148.371 198.408 148.172C197.904 147.979 197.513 147.737 197.246 147.457ZM197.544 139.399V145.867C197.544 145.979 197.792 146.159 198.289 146.414C198.787 146.668 199.159 146.793 199.42 146.793C200.775 146.793 201.744 146.469 202.328 145.817C202.912 145.171 203.21 144.077 203.21 142.555C203.21 141.287 202.869 140.293 202.185 139.585C201.502 138.877 200.582 138.516 199.42 138.516C199.178 138.516 198.836 138.622 198.401 138.833C197.96 139.044 197.674 139.231 197.544 139.399Z" fill="white"/>
<path d="M211.773 150.173C211.512 150.887 210.971 151.477 210.145 151.95C209.318 152.422 208.393 152.664 207.38 152.664V150.887C208.212 150.887 208.921 150.695 209.517 150.309C210.108 149.924 210.406 149.452 210.406 148.893C210.406 148.278 210.3 147.675 210.083 147.078C209.865 146.482 209.586 145.742 209.244 144.866L206.212 137.068H208.243L211.543 145.736L214.507 137.068H216.538L211.773 150.173Z" fill="white"/>
</g>
<defs>
<clipPath id="clip0_30_887">
<rect width="183.265" height="171" fill="white" transform="translate(36.0754 0.490967)"/>
</clipPath>
</defs>
</svg>
