<svg width="62" height="48" viewBox="0 0 62 48" fill="none" xmlns="http://www.w3.org/2000/svg">
<g clip-path="url(#clip0_30_849)">
<path d="M57.1482 0.0493164C57.3375 1.29139 57.5253 2.49732 57.7032 3.70487C57.7976 4.34451 57.8757 4.98577 57.9575 5.62702C58.1546 7.17057 57.6082 8.43313 56.3813 9.36725C55.7684 9.83376 55.0791 10.2269 54.3742 10.5446C53.3012 11.0273 52.1742 11.3919 51.0897 11.8525C50.3578 12.1631 49.6434 12.5234 48.9541 12.9182C48.5841 13.1301 48.2834 13.4607 47.8969 13.7827C47.5176 13.4764 47.117 13.1533 46.741 12.8502C46.8431 12.3535 47.1198 12.0596 47.4631 11.8552C47.9903 11.5413 48.5306 11.2349 49.0977 11.003C50.205 10.55 51.343 10.1714 52.452 9.72212C53.1053 9.45731 53.7526 9.15691 54.3551 8.7961C54.8303 8.5108 55.2723 8.14513 55.6604 7.74927C56.276 7.12149 56.592 6.34756 56.5707 5.38325C56.0124 5.3277 55.4623 5.35628 54.9088 5.36491C54.8679 5.47978 54.8232 5.56122 54.8101 5.64698C54.7151 6.25857 54.3655 6.71808 53.8634 7.03628C53.3154 7.38361 52.7429 7.70828 52.1447 7.9596C51.1258 8.38783 50.0713 8.733 49.0463 9.1472C48.3418 9.43196 47.6393 9.73668 46.9751 10.1018C46.491 10.3677 46.0702 10.7468 45.5905 11.0985C45.2559 10.5419 45.1233 9.91844 45.0758 9.27772C44.9503 7.58531 45.0802 5.90423 45.3307 4.22909C45.5108 3.02154 45.6855 1.81291 45.8656 0.605363C45.8918 0.428462 45.9332 0.25372 45.9736 0.0503945C49.6996 0.0493158 53.4147 0.0493164 57.1482 0.0493164Z" fill="white"/>
<path d="M5.75049 34.3627C5.75049 33.8568 5.75049 33.3806 5.75049 32.9114C6.17073 32.7971 10.3841 32.7717 11.0674 32.8774C11.0674 33.3472 11.0674 33.8234 11.0674 34.3471C10.5746 34.4005 10.0779 34.4544 9.4945 34.5175C10.7678 37.9207 12.0509 41.265 13.3624 44.7043C13.4781 44.5155 13.5556 44.4228 13.5971 44.3165C14.6024 41.7547 15.6006 39.1902 16.6114 36.6306C16.7189 36.3582 16.726 36.1199 16.6081 35.855C16.4766 35.5595 16.3543 35.2569 16.267 34.9463C16.1671 34.5903 15.9565 34.469 15.5914 34.4711C15.2306 34.4733 14.8693 34.4053 14.4687 34.3638C14.4687 33.8757 14.4687 33.399 14.4687 32.9184C14.8224 32.7949 18.908 32.7512 19.7725 32.8731C19.8386 33.352 19.8189 33.8412 19.7791 34.3514C19.1858 34.408 18.6324 34.4609 17.9982 34.5218C19.2633 37.8495 20.5055 41.1183 21.7482 44.3872C21.7924 44.3893 21.8361 44.3915 21.8803 44.3937C22.2875 43.3387 22.5969 42.2493 22.9517 41.176C23.3184 40.0666 23.6765 38.9546 24.0383 37.8435C24.3936 36.753 24.7489 35.6625 25.1211 34.5197C24.553 34.4625 24.0519 34.4118 23.5062 34.3568C23.5062 33.8617 23.5062 33.3725 23.5062 32.8494C25.2614 32.8494 26.9969 32.8494 28.7696 32.8494C28.7696 33.3553 28.7696 33.831 28.7696 34.3584C28.3505 34.3994 27.9406 34.4474 27.5291 34.4782C26.9969 34.5181 26.9931 34.511 26.8228 35.032C26.02 37.493 25.2188 39.9545 24.4176 42.4159C23.9057 43.9886 23.3948 45.5613 22.8813 47.1334C22.8316 47.2855 22.7699 47.4344 22.7033 47.6118C22.1767 47.6118 21.6565 47.6118 21.0791 47.6118C19.9805 44.7286 18.8753 41.827 17.7188 38.7928C17.5922 39.0462 17.5076 39.1881 17.4481 39.3396C16.4569 41.8685 15.4691 44.3985 14.4796 46.9274C14.389 47.1593 14.2913 47.388 14.1947 47.6237C13.6517 47.6237 13.1468 47.6237 12.5956 47.6237C12.511 47.423 12.416 47.2138 12.3347 47.0002C10.8169 43.0173 9.29475 39.0355 7.79332 35.0461C7.64542 34.6534 7.46804 34.4582 7.02433 34.4695C6.61336 34.4808 6.19857 34.4043 5.75049 34.3627Z" fill="white"/>
<path d="M35.875 34.3649C35.875 33.8499 35.875 33.3742 35.875 32.8645C36.0436 32.8467 36.1823 32.8198 36.3209 32.8192C37.1936 32.8155 38.0668 32.8327 38.939 32.8095C39.2779 32.8004 39.4575 32.9352 39.6288 33.2059C41.2378 35.7494 42.8593 38.2853 44.477 40.8234C45.1259 41.8416 45.7743 42.8604 46.4254 43.8776C46.5187 44.0237 46.6235 44.1629 46.7386 44.3274C46.8882 43.9385 46.94 35.4328 46.8074 34.5305C46.1983 34.475 45.5734 34.4178 44.9174 34.3579C44.9174 33.8569 44.9174 33.3807 44.9174 32.9082C45.3289 32.795 49.6269 32.7755 50.2234 32.8888C50.2234 33.3553 50.2234 33.8299 50.2234 34.3531C49.7224 34.4097 49.2252 34.4658 48.6505 34.5305C48.6489 36.0271 48.6461 37.5114 48.645 38.9956C48.6439 40.469 48.645 41.9425 48.645 43.4159C48.645 44.9055 48.645 46.3957 48.645 47.9435C48.1009 48.012 47.578 47.9931 47.0623 47.9554C46.9324 47.9457 46.7921 47.7418 46.7004 47.5994C45.8217 46.236 44.9523 44.8667 44.0807 43.4984C42.8025 41.4921 41.5249 39.4853 40.245 37.4795C40.1435 37.3204 40.0278 37.1705 39.8946 36.9817C39.7593 37.4515 39.7424 45.3537 39.8652 45.9324C40.4611 45.9847 41.0719 46.0381 41.7355 46.0958C41.7923 46.5925 41.7792 47.0833 41.7366 47.6108C39.976 47.6108 38.2382 47.6108 36.4361 47.6108C36.3438 47.1302 36.3815 46.6405 36.4202 46.1066C36.936 46.0473 37.4321 45.9896 37.9593 45.9286C37.9593 42.1361 37.9593 38.3727 37.9593 34.5542C37.2782 34.4928 36.6145 34.4324 35.875 34.3649Z" fill="white"/>
<path d="M16.5357 13.135C17.13 13.1873 17.7396 13.2412 18.3918 13.2984C18.3918 13.8043 18.3918 14.2934 18.3918 14.815C16.6284 14.815 14.8929 14.815 13.124 14.815C13.124 14.3069 13.124 13.8301 13.124 13.3032C13.6125 13.2498 14.0928 13.1975 14.5638 13.1463C14.6833 12.7466 14.7204 2.49351 14.6025 1.7282C14.1381 1.67535 13.6578 1.62033 13.1349 1.56047C13.1349 1.06699 13.1349 0.576205 13.1349 0.0514388C14.8869 0.0514388 16.6224 0.0514388 18.3973 0.0514388C18.3973 0.550857 18.3973 1.02708 18.3973 1.5567C17.7735 1.61603 17.1497 1.67535 16.4915 1.73791C16.4915 2.99832 16.4915 4.22906 16.4915 5.45334C17.2228 5.82386 22.4126 6.23159 23.3344 6.03042C23.3344 4.626 23.3344 3.21405 23.3344 1.74169C22.7073 1.68236 22.0835 1.62303 21.4247 1.56047C21.4247 1.06375 21.4247 0.586447 21.4247 0.108067C21.8035 -0.00303378 25.6648 -0.0440217 26.6876 0.0600684C26.7706 0.53899 26.7373 1.0287 26.7007 1.5567C26.1975 1.61441 25.7167 1.66995 25.2462 1.72388C25.1354 2.14995 25.1152 12.525 25.226 13.1371C25.6916 13.191 26.1719 13.2466 26.6909 13.3065C26.6909 13.8113 26.6909 14.3004 26.6909 14.8187C24.9302 14.8187 23.2089 14.8187 21.4509 14.8187C21.3194 14.329 21.4154 13.8372 21.3849 13.3054C22.0458 13.2466 22.6554 13.1927 23.2569 13.1393C23.3917 12.7542 23.4261 8.58952 23.3087 7.95204C21.0498 7.77136 18.7941 7.59069 16.5286 7.40947C16.4254 7.76435 16.4107 12.5676 16.5357 13.135Z" fill="white"/>
<path d="M61.9317 47.6216C58.3956 47.6216 54.8917 47.6216 51.3521 47.6216C51.2484 47.1216 51.2916 46.6308 51.3287 46.1034C51.8281 46.0468 52.3089 45.9923 52.8672 45.9286C52.8678 42.1334 52.8672 38.3522 52.8678 34.5332C52.3356 34.4717 51.8553 34.4167 51.3358 34.3569C51.3358 33.8564 51.3358 33.3667 51.3358 32.8473C54.7433 32.8473 58.1194 32.8473 61.4923 32.8473C61.6298 33.2216 61.6681 36.2224 61.5409 36.9472C61.0753 37.0767 60.5945 37.006 60.0395 36.9866C59.9625 36.1987 59.8861 35.4231 59.807 34.6147C58.0916 34.6147 56.4117 34.6147 54.6952 34.6147C54.6952 36.1237 54.6952 37.6025 54.6952 39.1186C55.6312 39.1186 56.5296 39.1186 57.4738 39.1186C57.5273 38.6461 57.5786 38.1893 57.6331 37.7039C58.1505 37.7039 58.633 37.7039 59.1084 37.7039C59.2339 38.144 59.2443 41.8411 59.1204 42.3578C58.6456 42.3578 58.1636 42.3578 57.6342 42.3578C57.5824 41.8912 57.5338 41.4506 57.4781 40.9458C56.5601 40.8342 55.6492 40.8816 54.6974 40.8957C54.6974 42.5735 54.6974 44.1796 54.6974 45.7819C55.0958 45.8968 59.432 45.9308 60.2059 45.8175C60.2769 44.7718 60.3489 43.7082 60.422 42.6231C60.9422 42.6231 61.4104 42.6231 61.876 42.6231C62.0004 43.0028 62.0446 46.6492 61.9317 47.6216Z" fill="white"/>
<path d="M13.1272 31.2072C13.1272 30.7083 13.1272 30.2321 13.1272 29.7019C13.6091 29.6491 14.0894 29.5962 14.5626 29.5444C14.6843 29.154 14.7291 19.0071 14.6101 18.1301C14.1451 18.0757 13.6653 18.0196 13.1245 17.9565C13.0639 17.4727 13.0852 16.9808 13.1174 16.4507C16.5367 16.4507 19.9292 16.4507 23.3954 16.4507C23.4287 17.8076 23.4047 19.163 23.4118 20.5345C22.8824 20.6876 22.3994 20.5932 21.8432 20.6105C21.7641 19.8069 21.6877 19.0314 21.608 18.2207C19.8954 18.2207 18.2144 18.2207 16.493 18.2207C16.493 19.7616 16.493 21.2803 16.493 22.798C16.8887 22.9339 18.6663 22.9474 19.2721 22.8088C19.3223 22.3671 19.3741 21.9087 19.4298 21.4146C19.9379 21.4146 20.4204 21.4146 20.9056 21.4146C21.0328 21.7684 21.0748 24.9914 20.9547 25.8274C20.4701 25.938 19.9745 25.8927 19.4418 25.8495C19.3872 25.4623 19.3359 25.0955 19.2754 24.6641C18.8147 24.6641 18.3661 24.6641 17.918 24.6641C17.4645 24.6641 17.0115 24.6641 16.5727 24.6641C16.4281 25.0691 16.3948 28.7392 16.5154 29.4015C16.9198 29.5024 21.3488 29.5256 22.008 29.4182C22.0752 28.386 22.1434 27.337 22.2133 26.2659C22.7219 26.1515 23.2033 26.2082 23.6765 26.2227C23.7944 26.6358 23.8189 30.5697 23.7092 31.2077C20.1988 31.2072 16.6813 31.2072 13.1272 31.2072Z" fill="white"/>
<path d="M34.1095 4.89346C34.6487 4.89346 35.1165 4.89346 35.5787 4.89346C35.6933 5.3082 35.7163 8.90497 35.6082 9.55001C35.1334 9.55001 34.652 9.55001 34.127 9.55001C34.0773 9.12771 34.0282 8.7092 33.9736 8.247C33.0289 8.247 32.1305 8.247 31.1973 8.247C31.1973 9.86228 31.1973 11.4339 31.1973 12.9995C31.641 13.1101 36.1065 13.1247 36.7003 13.0109C36.7707 11.9786 36.8422 10.9291 36.9159 9.84394C37.436 9.84394 37.9174 9.84394 38.4719 9.84394C38.497 11.4948 38.4795 13.1354 38.485 14.8117C34.8992 14.8117 31.3801 14.8117 27.8118 14.8117C27.8118 14.3112 27.8118 13.8209 27.8118 13.3043C28.3177 13.2487 28.8013 13.1958 29.2772 13.1435C29.3935 12.7407 29.4257 2.45355 29.31 1.73086C28.8297 1.67477 28.333 1.61652 27.8091 1.55504C27.8091 1.04106 27.8091 0.550273 27.8091 0.0384521C31.2333 0.0384521 34.6111 0.0384521 37.9823 0.0384521C38.1073 0.442407 38.1373 3.4594 38.0222 4.16106C37.5495 4.16106 37.0692 4.16106 36.5246 4.16106C36.4547 3.40654 36.3843 2.64609 36.315 1.89697C35.9193 1.7643 32.0978 1.72115 31.2567 1.83171C31.1416 2.20816 31.1083 5.69922 31.2131 6.37877C31.5858 6.48987 33.3269 6.51846 33.9496 6.41598C33.9818 6.18407 34.0216 5.93922 34.0484 5.69275C34.0746 5.44628 34.0866 5.19764 34.1095 4.89346Z" fill="white"/>
<path d="M10.2532 17.5149C10.2958 17.1266 10.3329 16.7938 10.3716 16.4432C10.8836 16.4432 11.3475 16.4432 11.8496 16.4432C11.8496 18.0267 11.8496 19.5804 11.8496 21.1725C11.2945 21.1725 10.7575 21.1725 10.1735 21.1725C10.1337 21.0167 10.0873 20.8484 10.048 20.678C9.68449 19.1107 8.41502 18.0558 6.79244 17.9749C6.11513 17.9415 5.44658 17.9889 4.80093 18.2106C4.27589 18.3907 3.81253 18.6647 3.47469 19.1151C2.74772 20.0831 3.00642 21.3522 4.11979 21.8322C4.89425 22.166 5.74237 22.337 6.56485 22.5565C7.24816 22.7388 7.94511 22.8725 8.62897 23.0542C8.97826 23.147 9.31719 23.2851 9.65066 23.427C12.5689 24.6685 12.642 27.9309 11.1215 29.7376C10.3771 30.6221 9.4056 31.1183 8.28513 31.3243C6.86339 31.5859 5.45911 31.471 4.0936 30.9948C3.39992 30.7532 2.77883 30.3853 2.2467 29.8768C2.17029 29.8039 2.08461 29.7408 1.9236 29.6065C1.8019 30.1841 1.69383 30.6949 1.58522 31.211C1.08257 31.211 0.617566 31.211 0.157477 31.211C0.0827056 30.7337 0.489308 27.1985 0.732179 26.1899C1.27468 26.1899 1.82755 26.1899 2.41371 26.1899C2.43936 26.3426 2.46665 26.4785 2.48357 26.6155C2.62984 27.7987 3.24056 28.6638 4.33429 29.1627C5.58082 29.7311 6.89177 29.8492 8.22346 29.5391C9.38104 29.27 10.1511 28.4427 10.2941 27.3662C10.4169 26.4418 10.108 25.6732 9.26698 25.2245C8.73048 24.9386 8.13395 24.7402 7.54233 24.5811C6.5965 24.327 5.62775 24.1567 4.67867 23.9145C4.22404 23.7986 3.78033 23.6244 3.35135 23.4324C0.858798 22.3176 0.868622 19.4138 2.14683 17.9285C2.8345 17.1293 3.70938 16.6503 4.72506 16.4109C6.18062 16.0679 7.61546 16.1061 8.98645 16.7544C9.40615 16.9539 9.78765 17.2328 10.2532 17.5149Z" fill="white"/>
<path d="M30.6188 18.1399C29.8121 18.08 29.0742 18.0256 28.2954 17.9679C28.2954 17.4523 28.2954 16.9636 28.2954 16.4437C29.6844 16.4437 31.0418 16.4437 32.4482 16.4437C32.5361 16.6104 32.6398 16.7954 32.7337 16.9857C34.6935 20.9768 36.6572 24.9651 38.6018 28.9636C38.8065 29.3843 39.0297 29.6205 39.5362 29.592C39.9286 29.5698 40.327 29.6551 40.7571 29.6955C40.7571 30.196 40.7571 30.6738 40.7571 31.1533C40.3811 31.2649 36.5241 31.3054 35.4996 31.2013C35.3845 30.7262 35.4423 30.2375 35.4664 29.7122C35.9428 29.6594 36.3871 29.6103 36.8783 29.5564C36.8095 29.3795 36.7686 29.2462 36.7085 29.1222C36.3472 28.3774 35.969 27.6401 35.6246 26.8878C35.4964 26.6079 35.3146 26.4709 35.0161 26.4364C34.0053 26.3193 32.9967 26.184 31.9854 26.0755C31.3015 26.0022 30.6144 25.9623 29.8814 25.9035C29.4634 27.1202 29.0573 28.3019 28.6316 29.5396C29.2058 29.599 29.7068 29.6507 30.2471 29.7063C30.2471 30.189 30.2471 30.6652 30.2471 31.1404C29.8765 31.2649 25.727 31.3038 24.9487 31.1851C24.9487 30.7175 24.9487 30.2424 24.9487 29.6955C25.3815 29.6561 25.8258 29.5952 26.2711 29.5822C26.6052 29.5725 26.7836 29.4663 26.8977 29.1308C28.0962 25.6085 29.3133 22.0926 30.5227 18.5735C30.5626 18.4581 30.5768 18.3341 30.6188 18.1399ZM32.1311 19.7832C32.0809 19.7859 32.0307 19.7881 31.9805 19.7908C31.4882 21.2259 30.9965 22.6605 30.4818 24.1604C31.8249 24.2942 33.0895 24.4204 34.473 24.5584C33.6555 22.8908 32.893 21.337 32.1311 19.7832Z" fill="white"/>
<path d="M1.77173 1.86194C1.7035 2.60567 1.63419 3.3672 1.56106 4.1654C1.04803 4.1654 0.567207 4.1654 0.00451139 4.1654C-0.00367523 2.80414 0.00178152 1.44936 0.00178152 0.0562744C4.03724 0.0562744 8.02632 0.0562744 12.046 0.0562744C12.046 1.42293 12.046 2.76369 12.046 4.1627C11.5482 4.23713 11.0543 4.22041 10.5151 4.16378C10.443 3.38068 10.3726 2.61915 10.2995 1.82473C9.17409 1.82473 8.09345 1.82473 7.01773 1.82473C6.90803 2.2481 6.88729 12.5223 7.00027 13.1312C7.66721 13.1851 8.34942 13.2406 9.07585 13.2994C9.07585 13.7999 9.07585 14.2885 9.07585 14.8128C7.04502 14.8128 5.03656 14.8128 2.99263 14.8128C2.99263 14.3128 2.99263 13.8366 2.99263 13.301C3.67703 13.2466 4.35816 13.1921 5.01909 13.1398C5.0502 13.1112 5.06438 13.0993 5.07639 13.0864C5.0884 13.0734 5.10696 13.06 5.10805 13.0454C5.12333 12.8852 5.1468 12.725 5.1468 12.5649C5.14898 9.00693 5.14844 5.44954 5.14844 1.90455C4.73693 1.76216 2.42993 1.73358 1.77173 1.86194Z" fill="white"/>
<path d="M51.6709 23.073C51.6709 25.2541 51.6709 27.3677 51.6709 29.5261C52.1921 29.587 52.6876 29.6453 53.2127 29.7073C53.2127 30.2089 53.2127 30.6856 53.2127 31.2034C51.5885 31.2034 49.9784 31.2034 48.31 31.2034C48.2183 30.7239 48.286 30.2331 48.2663 29.7105C48.8148 29.649 49.3131 29.5929 49.8458 29.5325C49.8458 27.3774 49.8458 25.2487 49.8458 23.0628C49.3388 23.0078 48.841 22.9538 48.2931 22.894C48.2832 22.6324 48.2712 22.387 48.2663 22.1416C48.262 21.9108 48.2652 21.68 48.2652 21.4108C48.5834 21.3817 48.8634 21.3558 49.1707 21.3272C49.0724 20.9751 48.9578 20.6542 48.8956 20.3235C48.6598 19.0637 49.0211 17.9937 50.0663 17.2246C51.1185 16.4501 52.298 16.3422 53.4594 16.9377C54.2273 17.3314 54.919 17.8702 55.693 18.3755C55.384 18.8296 55.1046 19.24 54.8083 19.6764C54.6543 19.6057 54.5225 19.5572 54.4025 19.4887C53.8682 19.1818 53.3431 18.8587 52.8034 18.5616C52.0878 18.1679 51.2872 18.3167 50.8506 18.9051C50.4467 19.4488 50.5384 20.289 51.0672 20.8338C51.4275 21.2048 51.8783 21.3628 52.3924 21.3666C52.9376 21.3709 53.4828 21.3779 54.0281 21.3844C54.0455 21.3844 54.063 21.3947 54.1405 21.4189C54.2098 21.8849 54.2076 22.3714 54.1318 22.9037C53.3175 22.9592 52.5266 23.0137 51.6709 23.073Z" fill="white"/>
<path d="M31.3789 34.5202C30.8724 34.4647 30.3883 34.4118 29.8726 34.3552C29.8726 33.8536 29.8726 33.3774 29.8726 32.9093C30.301 32.7982 34.0663 32.7728 34.766 32.8753C34.766 33.3429 34.766 33.818 34.766 34.3579C34.2972 34.4091 33.8169 34.462 33.342 34.5138C33.2122 34.8945 33.1592 44.9276 33.2858 45.927C33.7492 45.982 34.2289 46.0386 34.7589 46.1017C34.7589 46.5871 34.7589 47.0774 34.7589 47.6081C33.1456 47.6081 31.5361 47.6081 29.8813 47.6081C29.8813 47.1113 29.8813 46.62 29.8813 46.1017C30.3905 46.0456 30.8741 45.9922 31.3494 45.9399C31.4673 45.536 31.4973 35.2203 31.3789 34.5202Z" fill="white"/>
<path d="M40.3618 25.0507C40.364 22.9414 41.9866 21.3558 44.1386 21.3612C46.2868 21.3666 47.8946 22.9598 47.8892 25.0766C47.8837 27.1466 46.2524 28.7451 44.1391 28.7516C42.0068 28.7592 40.3596 27.1449 40.3618 25.0507ZM44.1501 26.9896C45.2847 26.9788 46.1138 26.1607 46.1148 25.0507C46.1159 23.9246 45.2465 23.0871 44.0966 23.1065C42.9734 23.1254 42.1176 23.9651 42.1149 25.0497C42.111 26.1494 43.0045 27.0004 44.1501 26.9896Z" fill="white"/>
<path d="M57.7627 10.6335C57.141 12.2564 56.0609 13.396 54.5352 14.1348C53.0513 14.8538 50.7918 15.021 49.7395 14.4628C50.0822 14.2659 50.3759 14.0583 50.6996 13.918C51.4626 13.5869 52.2331 13.2698 53.0131 12.9796C54.6299 12.3788 56.2236 11.7386 57.5918 10.66C57.6126 10.6433 57.6524 10.6492 57.7627 10.6335Z" fill="white"/>
<path d="M57.1496 0.0495605C57.339 1.29163 57.5268 2.49756 57.7047 3.70511C57.7991 4.34475 57.8771 4.98601 57.959 5.62726C58.156 7.17081 57.6097 8.43338 56.3828 9.36749C55.7699 9.834 55.0806 10.2272 54.3757 10.5448C53.3027 11.0275 52.1756 11.3921 51.0912 11.8527C50.3593 12.1634 49.6449 12.5236 48.9556 12.9184C48.5855 13.1304 48.2848 13.461 47.8984 13.7829C47.5191 13.4766 47.1185 13.1536 46.7425 12.8505C46.8445 12.3537 47.1212 12.0598 47.4645 11.8554C47.9917 11.5415 48.5321 11.2352 49.0991 11.0033C50.2065 10.5502 51.3444 10.1716 52.4534 9.72236C53.1067 9.45756 53.754 9.15715 54.3566 8.79634C54.8317 8.51104 55.2738 8.14538 55.6618 7.74951C56.2775 7.12174 56.5935 6.3478 56.5722 5.38349C56.0139 5.32794 55.4637 5.35653 54.9103 5.36516C54.8694 5.48003 54.8246 5.56147 54.8115 5.64722C54.7166 6.25881 54.3669 6.71832 53.8648 7.03652C53.3169 7.38385 52.7443 7.70852 52.1462 7.95985C51.1272 8.38807 50.0728 8.73324 49.0478 9.14744C48.3432 9.43221 47.6408 9.73693 46.9766 10.102C46.4925 10.3679 46.0717 10.7471 45.592 11.0987C45.2574 10.5421 45.1248 9.91868 45.0773 9.27796C44.9518 7.58556 45.0817 5.90448 45.3322 4.22934C45.5123 3.02179 45.6869 1.81316 45.867 0.605607C45.8932 0.428706 45.9347 0.253964 45.9751 0.0506386C49.7011 0.04956 53.4162 0.0495605 57.1496 0.0495605Z" fill="white"/>
<path d="M51.6709 23.073C51.6709 25.2541 51.6709 27.3677 51.6709 29.5261C52.1921 29.587 52.6877 29.6453 53.2127 29.7073C53.2127 30.2089 53.2127 30.6856 53.2127 31.2034C51.5885 31.2034 49.9784 31.2034 48.31 31.2034C48.2183 30.7239 48.286 30.2331 48.2663 29.7105C48.8148 29.649 49.3131 29.5929 49.8458 29.5325C49.8458 27.3774 49.8458 25.2487 49.8458 23.0628C49.3388 23.0078 48.841 22.9538 48.2931 22.894C48.2832 22.6324 48.2712 22.387 48.2663 22.1416C48.262 21.9108 48.2652 21.68 48.2652 21.4108C48.5834 21.3817 48.8634 21.3558 49.1707 21.3272C49.0724 20.9751 48.9578 20.6542 48.8956 20.3235C48.6598 19.0637 49.0211 17.9937 50.0663 17.2246C51.1185 16.4501 52.298 16.3422 53.4594 16.9377C54.2273 17.3314 54.9191 17.8702 55.693 18.3755C55.3841 18.8296 55.1046 19.24 54.8083 19.6764C54.6544 19.6057 54.5225 19.5572 54.4025 19.4887C53.8682 19.1818 53.3431 18.8587 52.8034 18.5616C52.0878 18.1679 51.2872 18.3167 50.8506 18.9051C50.4467 19.4488 50.5384 20.289 51.0672 20.8338C51.4275 21.2048 51.8783 21.3628 52.3924 21.3666C52.9376 21.3709 53.4828 21.3779 54.0281 21.3844C54.0455 21.3844 54.063 21.3947 54.1405 21.4189C54.2098 21.8849 54.2076 22.3714 54.1318 22.9037C53.3175 22.9592 52.5266 23.0137 51.6709 23.073Z" fill="white"/>
<path d="M57.7619 10.6334C57.1403 12.2563 56.0602 13.3958 54.5345 14.1347C53.0505 14.8536 50.791 15.0208 49.7388 14.4626C50.0815 14.2658 50.3752 14.0581 50.6988 13.9179C51.4618 13.5868 52.2324 13.2696 53.0123 12.9795C54.6292 12.3787 56.2228 11.7385 57.5911 10.6599C57.6118 10.6431 57.6517 10.6491 57.7619 10.6334Z" fill="white"/>
</g>
<defs>
<clipPath id="clip0_30_849">
<rect width="62" height="48" fill="white"/>
</clipPath>
</defs>
</svg>
